# xmcd
#
# Track frame offsets: 
#        150
#        22750
#        46005
#        68355
#        97380
#        117477
#        135850
#        161800
#        183480
#
# Disc length: 2821 seconds
#
# Revision: 5
# Processed by: cddbd v1.5.2PL0 Copyright (c) Steve Scherf et al.
# Submitted via: ExactAudioCopy v0.95b3
#
DISCID=6d0b0309
DTITLE=Ben Webster - Ben Webster Meets Bill Coleman
DYEAR=1967
DGENRE=Jazz
TTITLE0=Pound Horn (Coleman_Webster)
TTITLE1=Moonglow (Hudson_deLange_Mills)
TTITLE2=Satin Doll (Ellington_Strayhorn)
TTITLE3=For Max (Coleman_Webster)
TTITLE4=But Not For Me (take 3) (Gershwin)
TTITLE5=But Not For Me (take 4) (Gershwin)
TTITLE6=For All We Know (Coots_Lewis)
TTITLE7=Sunday (Miller_Cohn_Stein_Kruger)
TTITLE8=Bill Coleman (Coleman_Webster)
EXTD=YEAR: 1967
EXTT0=
EXTT1=
EXTT2=
EXTT3=
EXTT4=
EXTT5=
EXTT6=
EXTT7=
EXTT8=
PLAYORDER=
